<svg version="1.1" id="Layer_1" xmlns="http://www.w3.org/2000/svg" xmlns:xlink="http://www.w3.org/1999/xlink" x="0px" y="0px" viewBox="-462 532 31.8 18" style="enable-background:new -462 532 31.8 18;" xml:space="preserve">
 <style type="text/css">
  .st0{fill:#FFFFFF;}
 </style>
 <path class="st0" d="M-431.4,536.2c-1.4-2.6-4.2-4.2-7.2-4.2h-22.7c-0.3,0-0.6,0.2-0.7,0.5c-0.1,0.3-0.1,0.6,0.2,0.8l4.9,4.9
	c0.4,0.4,1,0.7,1.6,0.7h16c1.1,0,2.1,0.9,2.1,2c0,1.1-0.9,2-2,2.1h-11c-0.3,0-0.6,0.2-0.7,0.5c-0.1,0.3-0.1,0.6,0.2,0.8l4.9,4.9
	c0.4,0.4,1,0.7,1.6,0.7h5C-432.7,549.9-427.8,543-431.4,536.2">
 </path>
</svg>